<svg width="56" height="30" viewBox="0 0 56 30" fill="none" xmlns="http://www.w3.org/2000/svg">
<path d="M50.1237 0H43.7659V3.47472H50.1237C51.4554 3.47472 52.538 4.58592 52.538 5.95288V25.5312H43.7745V29.006H55.9317V5.95288C55.9231 2.67218 53.3198 0 50.1237 0Z" fill="white"/>
<path d="M12.1486 0H0V23.0531C0 26.3338 2.60328 29.006 5.79938 29.006H12.1572V25.5312H5.79938C4.46767 25.5312 3.38512 24.42 3.38512 23.0531V3.47472H12.1486V0Z" fill="white"/>
<path d="M15.9593 12.0825C15.9593 10.8567 15.04 9.63965 12.4195 9.63965H9.42099C9.18902 9.63965 9 9.83367 9 10.0718V17.4357C9 18.5028 9.84198 19.3671 10.8816 19.3671C11.1136 19.3671 11.3026 19.1731 11.3026 18.935V16.0599H12.4195C15.04 16.0599 15.9593 14.8429 15.9593 13.6171V12.0825ZM13.6911 13.2026C13.6911 13.864 13.1068 14.1286 12.4195 14.1286H11.3026V11.571H12.4195C13.0982 11.571 13.6911 11.8444 13.6911 12.497V13.2026Z" fill="white"/>
<path d="M20.9166 10.0713C20.8307 9.78908 20.6933 9.63916 20.4011 9.63916H18.8976C18.6055 9.63916 18.468 9.78026 18.3821 10.0713L15.8647 18.9345C15.7788 19.2079 15.8819 19.3666 16.174 19.3666H17.5831C17.8752 19.3666 18.0041 19.2079 18.0728 18.9345L18.4336 17.5587H20.7448L21.1057 18.9345C21.1744 19.2079 21.3033 19.3666 21.5954 19.3666H23.1419C23.434 19.3666 23.5285 19.2079 23.4512 18.9345L20.9166 10.0713ZM18.932 15.7067L19.1382 14.9306C19.3615 14.1016 19.5849 12.1438 19.6107 11.9409C19.6279 12.0732 19.8169 14.0575 20.0403 14.9306L20.2379 15.7067H18.932Z" fill="white"/>
<path d="M27.979 9.63916H24.8345C24.5424 9.63916 24.4307 9.77145 24.4307 10.0713V18.9345C24.4307 19.2167 24.5252 19.3666 24.7829 19.3666H27.9876C30.6081 19.3666 31.5532 18.1496 31.5532 16.9237V12.0909C31.5446 10.8562 30.5995 9.63916 27.979 9.63916ZM29.2506 16.5004C29.2506 17.1618 28.6664 17.4264 27.979 17.4264H26.7246V11.5617H27.979C28.6578 11.5617 29.2506 11.8351 29.2506 12.4877V16.5004Z" fill="white"/>
<path d="M38.0228 13.8546L35.6859 13.0432C35.5312 12.9903 35.2391 12.8139 35.2391 12.4259V12.2848C35.2391 11.6234 35.6945 11.3852 36.3388 11.3852C36.9832 11.3852 37.4214 11.6322 37.4214 12.2848V12.4964C37.4214 12.7963 37.5159 12.9286 37.808 12.9286H39.26C39.5521 12.9286 39.6638 12.7963 39.6638 12.4964V11.9673C39.6638 10.7414 38.882 9.52441 36.3045 9.52441C33.727 9.52441 33.0053 10.7414 33.0053 11.9673V12.7963C33.0053 13.6253 33.5895 14.4278 34.3026 14.7012L36.3045 15.4773C36.8372 15.6801 37.4987 15.9182 37.4987 16.4386V16.7208C37.4987 17.3822 36.9403 17.6203 36.2615 17.6203C35.5828 17.6203 35.0329 17.3734 35.0329 16.7208V16.077C35.0329 15.7771 34.9384 15.6449 34.6463 15.6449H33.2029C32.9108 15.6449 32.7991 15.7771 32.7991 16.077V17.0383C32.7991 18.2641 33.6754 19.4812 36.2959 19.4812C38.9164 19.4812 39.7669 18.2641 39.7669 17.0383V16.0241C39.7669 14.957 39.0538 14.2162 38.0228 13.8546Z" fill="white"/>
<path d="M45.8841 9.55957C45.6521 9.55957 45.4631 9.75359 45.4631 9.99171V14.948H43.2894L44.6899 9.99171C44.7586 9.73595 44.6899 9.55957 44.3977 9.55957H42.877C42.5849 9.55957 42.4388 9.71831 42.3701 9.99171L40.9353 15.1068C40.9181 15.1685 40.8923 15.2655 40.8923 15.3625V16.4561C40.8923 16.6942 41.0814 16.8882 41.3133 16.8882H45.4545V17.3821C45.4545 17.8583 45.4459 18.2111 45.4545 18.4933V18.9431C45.4545 19.1724 45.6349 19.3576 45.8583 19.3576H46.4855C46.7175 19.3576 47.0096 19.3487 47.3533 19.3487C47.5767 19.3487 47.7571 19.1635 47.7571 18.9343V17.3997V16.8882V11.5086C47.7829 10.4327 46.9323 9.55957 45.8841 9.55957Z" fill="white"/>
</svg>
